<svg xmlns="http://www.w3.org/2000/svg" width="27" height="26.994" viewBox="0 0 27 26.994">
    <path fill="#707070" d="M13.5 8.814a6.921 6.921 0 1 0 6.921 6.921A6.91 6.91 0 0 0 13.5 8.814zm0 11.42a4.5 4.5 0 1 1 4.5-4.5 4.508 4.508 0 0 1-4.5 4.5zm8.818-11.7A1.614 1.614 0 1 1 20.7 6.916a1.611 1.611 0 0 1 1.616 1.615zm4.582 1.635a7.989 7.989 0 0 0-2.18-5.656 8.041 8.041 0 0 0-5.656-2.18c-2.229-.126-8.909-.126-11.137 0A8.03 8.03 0 0 0 2.27 4.507a8.015 8.015 0 0 0-2.18 5.656c-.126 2.229-.126 8.909 0 11.137a7.989 7.989 0 0 0 2.18 5.656 8.051 8.051 0 0 0 5.656 2.18c2.229.126 8.909.126 11.137 0a7.989 7.989 0 0 0 5.656-2.18A8.041 8.041 0 0 0 26.9 21.3c.126-2.229.126-8.9 0-11.131zm-2.879 13.523a4.555 4.555 0 0 1-2.566 2.566c-1.777.7-5.993.542-7.957.542s-6.186.157-7.957-.542a4.555 4.555 0 0 1-2.566-2.566c-.7-1.777-.542-5.993-.542-7.957s-.157-6.186.542-7.957a4.555 4.555 0 0 1 2.566-2.566c1.777-.7 5.993-.542 7.957-.542s6.186-.157 7.957.542a4.555 4.555 0 0 1 2.566 2.566c.7 1.777.542 5.993.542 7.957s.162 6.186-.542 7.957z" transform="translate(.005 -2.238)"/>
</svg>
