<svg xmlns="http://www.w3.org/2000/svg" id="icoooo-04" width="57" height="57" viewBox="0 0 57 57">
    <defs>
        <style>
            .cls-1{fill:#56b68b}.cls-2{fill:#58595b}.cls-3{fill:#fff}
        </style>
    </defs>
    <g id="Group_233" transform="translate(15.814 41.671)">
        <path id="Path_292" d="M51.735 118.631a2.846 2.846 0 0 1-5.691.025 2.783 2.783 0 0 1 .172-.948h-.987a3.609 3.609 0 0 0-.129.948 3.793 3.793 0 0 0 7.587-.032 3.614 3.614 0 0 0-.14-.948h-.987a2.874 2.874 0 0 1 .175.955z" class="cls-1" transform="translate(-44.856 -117.444)"/>
        <path id="Path_293" d="M48.469 122.253a4.038 4.038 0 0 1-4.049-4.013 4.091 4.091 0 0 1 .136-1.009l.047-.179 1.506-.007-.111.318a2.6 2.6 0 1 0 5.058.848 2.517 2.517 0 0 0-.165-.869l-.114-.315 1.506-.007.047.179a3.971 3.971 0 0 1 .147 1.009 4.024 4.024 0 0 1-4.008 4.045zm-3.491-4.729a3.224 3.224 0 0 0-.082.712 3.557 3.557 0 0 0 7.115-.032 3.24 3.24 0 0 0-.086-.712h-.483a2.9 2.9 0 0 1 .093.712 3.083 3.083 0 1 1-6.167.029 2.9 2.9 0 0 1 .089-.712z" class="cls-2" transform="translate(-44.42 -117.02)"/>
    </g>
    <g id="Group_234" transform="translate(16.761 41.678)">
        <path id="Path_294" d="M50.592 121.5a2.847 2.847 0 0 0 2.833-2.858 2.788 2.788 0 0 0-.179-.948l-5.344.021a2.816 2.816 0 0 0 2.69 3.784z" class="cls-3" transform="translate(-47.494 -117.454)"/>
        <path id="Path_295" d="M50.168 121.312a3.059 3.059 0 0 1-2.915-4.1l.054-.157 5.68-.025.057.157a3.055 3.055 0 0 1-2.876 4.124zm-2.515-3.784a2.529 2.529 0 0 0-.107.712 2.608 2.608 0 0 0 5.215-.021 2.537 2.537 0 0 0-.111-.712z" class="cls-2" transform="translate(-47.07 -117.03)"/>
    </g>
    <g id="Group_235" transform="translate(37.531 41.575)">
        <path id="Path_296" d="M112.735 118.371a2.846 2.846 0 1 1-5.691.025 2.783 2.783 0 0 1 .172-.948h-.987a3.608 3.608 0 0 0-.129.948 3.793 3.793 0 1 0 7.587-.032 3.614 3.614 0 0 0-.139-.948h-.987a2.951 2.951 0 0 1 .174.955z" class="cls-1" transform="translate(-105.856 -117.18)"/>
        <path id="Path_297" d="M109.469 121.983a4.038 4.038 0 0 1-4.049-4.013 4.091 4.091 0 0 1 .136-1.009l.047-.179 1.506-.007-.111.318a2.6 2.6 0 1 0 5.058.848 2.517 2.517 0 0 0-.165-.869l-.114-.315 1.506-.007.047.179a3.971 3.971 0 0 1 .147 1.009 4.02 4.02 0 0 1-4.008 4.045zm-3.495-4.729a3.225 3.225 0 0 0-.082.712 3.557 3.557 0 0 0 7.115-.032 3.241 3.241 0 0 0-.086-.712h-.483a2.9 2.9 0 0 1 .093.712 3.083 3.083 0 0 1-6.167.029 2.9 2.9 0 0 1 .089-.712z" class="cls-2" transform="translate(-105.42 -116.75)"/>
    </g>
    <g id="Group_236" transform="translate(38.481 41.582)">
        <path id="Path_298" d="M111.592 121.236a2.847 2.847 0 0 0 2.833-2.858 2.788 2.788 0 0 0-.179-.948l-5.344.021a2.816 2.816 0 0 0 2.69 3.784z" class="cls-3" transform="translate(-108.494 -117.19)"/>
        <path id="Path_299" d="M111.168 121.042a3.059 3.059 0 0 1-2.915-4.1l.054-.157 5.68-.025.057.157a3.055 3.055 0 0 1-2.876 4.124zm-2.518-3.784a2.529 2.529 0 0 0-.107.712 2.608 2.608 0 1 0 5.215-.021 2.537 2.537 0 0 0-.111-.712z" class="cls-2" transform="translate(-108.07 -116.76)"/>
    </g>
    <g id="Group_237" transform="translate(28.909 21.539)">
        <path id="Path_300" d="M86.127 62.48l-3.938.018a1.005 1.005 0 1 1-.007-2.01l3.938-.018zm-3.945-1.517a.529.529 0 1 0 .007 1.059l3.463-.014v-1.059z" class="cls-2" transform="translate(-81.18 -60.47)"/>
    </g>
    <g id="Group_238" transform="translate(39.608 20.753)">
        <path id="Path_301" d="M112.856 61.492a.768.768 0 0 1-.218-.032l-1.427-.46-.011-2.228 1.424-.469a.7.7 0 0 1 .916.658l.007 1.828a.692.692 0 0 1-.286.565.656.656 0 0 1-.405.138zm-.072-.486a.224.224 0 0 0 .2-.032.23.23 0 0 0 .093-.182l-.007-1.828a.221.221 0 0 0-.293-.207l-1.095.361.007 1.538z" class="cls-2" transform="translate(-111.2 -58.269)"/>
    </g>
    <g id="Group_239" transform="translate(10.318 18.59)">
        <path id="Path_302" d="M42.388 64.23L29 64.287v-.236a11.766 11.766 0 0 1 11.7-11.8l1.635-.007zm-12.913-.419l12.437-.054-.046-11.039h-1.163a11.291 11.291 0 0 0-11.227 11.094z" class="cls-2" transform="translate(-29 -52.24)"/>
    </g>
    <g id="Group_240" transform="translate(23.375 26.611)">
        <path id="Path_303" d="M71.056 78.842l-4.729.021-.007-2.014a1.439 1.439 0 0 1 1.434-1.449l3.291-.014a1.438 1.438 0 0 1 1.445 1.431v.576a1.446 1.446 0 0 1-1.434 1.449z" class="cls-1" transform="translate(-66.08 -75.15)"/>
        <path id="Path_304" d="M70.626 78.647l-4.965.021-.011-2.25a1.68 1.68 0 0 1 1.67-1.685l3.291-.014a1.676 1.676 0 0 1 1.681 1.667v.576a1.678 1.678 0 0 1-1.666 1.685zm-4.493-.454l4.493-.018a1.205 1.205 0 0 0 1.2-1.209v-.576a1.2 1.2 0 0 0-1.211-1.19l-3.291.014a1.205 1.205 0 0 0-1.2 1.209z" class="cls-2" transform="translate(-65.65 -74.72)"/>
    </g>
    <g id="Group_241" transform="translate(36.495 33.73)">
        <path id="Path_305" d="M106.963 95.4a8.252 8.252 0 0 1 6.585 8.048l-10.345.046v-1.13" class="cls-3" transform="translate(-102.964 -95.168)"/>
        <path id="Path_306" d="M113.364 103.267l-10.817.047-.007-1.366h.476v.894l9.865-.043a8.046 8.046 0 0 0-6.392-7.58l.1-.465a8.516 8.516 0 0 1 6.775 8.281z" class="cls-2" transform="translate(-102.54 -94.75)"/>
    </g>
    <g id="Group_242" transform="translate(10.582 24.232)">
        <path id="Path_307" d="M54.329 86.44a2.952 2.952 0 0 0 2.611-1.6l3.184-6.156a1.652 1.652 0 0 0 .2-1.066l-1.352-8.8-3.577.014L55.3 80.08a5.245 5.245 0 0 1-.15 1.352 2.549 2.549 0 0 1-2.482 1.849l-4.282.018v-.193l-.036-8.485-6.045.025a11.845 11.845 0 0 0-11.793 11.9l17.888-.081 4.75-.021z" class="cls-3" transform="translate(-30.27 -68.58)"/>
        <path id="Path_308" d="M29.84 86.35v-.236A12.094 12.094 0 0 1 41.869 73.98l6.281-.029.039 8.678 4.046-.018a2.287 2.287 0 0 0 2.254-1.67 5.284 5.284 0 0 0 .143-1.291l.1-11.482 4.017-.018 1.384 9a1.907 1.907 0 0 1-.225 1.22l-3.18 6.149a3.177 3.177 0 0 1-2.822 1.724l-5.934.025zm.472-.476l23.583-.1A2.708 2.708 0 0 0 56.3 84.3l3.184-6.156a1.441 1.441 0 0 0 .175-.923l-1.32-8.6-3.141.014-.098 11.019a5.555 5.555 0 0 1-.157 1.409 2.768 2.768 0 0 1-2.711 2.028l-4.518.018-.039-8.681-5.809.025a11.624 11.624 0 0 0-11.554 11.421z" class="cls-2" transform="translate(-29.84 -68.15)"/>
    </g>
    <g id="Group_243" transform="translate(33.348 20.421)">
        <path id="Path_309" d="M99.215 61.572l-4.332.018a1.213 1.213 0 0 1-1.216-1.205l-.007-1.81a1.211 1.211 0 0 1 1.205-1.216l4.335-.019a1.211 1.211 0 0 1 1.216 1.205l.007 1.81a1.211 1.211 0 0 1-1.208 1.217zm-4.346-3.738a.738.738 0 0 0-.733.74l.007 1.81a.734.734 0 0 0 .74.733l4.332-.018a.738.738 0 0 0 .733-.74l-.007-1.81a.738.738 0 0 0-.74-.733z" class="cls-2" transform="translate(-93.66 -57.34)"/>
    </g>
    <g id="Group_244" transform="translate(14.482 36.603)">
        <path id="Path_310" d="M41.166 108.352h-.476a5.543 5.543 0 0 1 11.081-.229l-.476.018a5.067 5.067 0 0 0-10.13.207z" class="cls-2" transform="translate(-40.69 -102.79)"/>
    </g>
    <g id="Group_245">
        <path id="Path_311" d="M28.624 57A28.5 28.5 0 1 1 57 28.375 28.531 28.531 0 0 1 28.624 57zM28.378.313a28.186 28.186 0 1 0 28.311 28.062A28.217 28.217 0 0 0 28.378.313z" class="cls-2" transform="translate(.001 .001)"/>
    </g>
    <g id="Group_254" transform="translate(18.389 7.429)">
        <g id="Group_248" transform="translate(6.323)">
            <g id="Group_246">
                <path id="Path_312" d="M69.935 24.993l10.312-3.806a.2.2 0 0 1 .258.118l2.379 6.446a.2.2 0 0 1-.118.258l-10.313 3.805a.2.2 0 0 1-.253-.114l-2.383-6.45a.2.2 0 0 1 .118-.257z" class="cls-1" transform="translate(-69.661 -21.028)"/>
                <path id="Path_313" d="M72.328 31.71a.774.774 0 0 1-.726-.5l-2.15-5.823a.769.769 0 0 1 .454-.991l9.69-3.577a.775.775 0 0 1 .991.454l2.15 5.823a.769.769 0 0 1-.454.991l-9.69 3.577a.786.786 0 0 1-.265.046zm7.533-10.466a.329.329 0 0 0-.1.018l-9.69 3.577a.308.308 0 0 0-.168.154.29.29 0 0 0-.007.225l2.15 5.823a.294.294 0 0 0 .379.175l9.69-3.577a.308.308 0 0 0 .168-.154.29.29 0 0 0 .007-.225l-2.15-5.823a.3.3 0 0 0-.279-.193z" class="cls-2" transform="translate(-69.404 -20.767)"/>
            </g>
            <g id="Group_247" transform="translate(.256 .123)">
                <path id="Path_314" fill="#34b080" d="M70.27 25.339l6.009 1.3a.585.585 0 0 0 .594-.218L80.6 21.53" transform="translate(-70.216 -21.38)"/>
                <path id="Path_315" d="M76.308 26.622a1.045 1.045 0 0 1-.179-.018L70.12 25.3l.1-.465 6.009 1.3a.352.352 0 0 0 .354-.132l3.724-4.9.379.286-3.72 4.9a.828.828 0 0 1-.658.333z" class="cls-2" transform="translate(-70.12 -21.11)"/>
            </g>
        </g>
        <g id="Group_253" transform="translate(0 5.434)">
            <g id="Group_249" transform="translate(4.915 4.387)">
                <path id="Line_135" d="M2.196 0L0 0.808" class="cls-3" transform="translate(.237 .239)"/>
                <path id="Path_316" d="M65.7 49.505a.231.231 0 0 1-.222-.154.237.237 0 0 1 .14-.3l2.2-.812a.24.24 0 0 1 .3.14.237.237 0 0 1-.14.3l-2.2.812a.222.222 0 0 1-.078.014z" class="cls-2" transform="translate(-65.468 -48.222)"/>
            </g>
            <g id="Group_250" transform="translate(3.277 2.926)">
                <path id="Line_136" d="M3.294 0L0 1.216" class="cls-3" transform="translate(.237 .233)"/>
                <path id="Path_317" d="M61.125 45.827a.231.231 0 0 1-.222-.154.237.237 0 0 1 .139-.3l3.294-1.216a.237.237 0 1 1 .165.444l-3.294 1.216a.3.3 0 0 1-.082.01z" class="cls-2" transform="translate(-60.888 -44.138)"/>
            </g>
            <g id="Group_251" transform="translate(1.638 1.463)">
                <path id="Line_137" d="M4.393 0L0 1.62" class="cls-3" transform="translate(.237 .233)"/>
                <path id="Path_318" d="M56.545 42.141a.231.231 0 0 1-.222-.154.237.237 0 0 1 .139-.3l4.389-1.62a.237.237 0 1 1 .165.444l-4.389 1.62a.3.3 0 0 1-.082.01z" class="cls-2" transform="translate(-56.308 -40.048)"/>
            </g>
            <g id="Group_252">
                <path id="Line_138" d="M5.491 0L0 2.028" class="cls-3" transform="translate(.237 .233)"/>
                <path id="Path_319" d="M51.965 38.455a.231.231 0 0 1-.222-.154.237.237 0 0 1 .139-.3l5.487-2.025a.234.234 0 0 1 .3.14.237.237 0 0 1-.14.3l-5.487 2.025a.3.3 0 0 1-.077.014z" class="cls-2" transform="translate(-51.728 -35.958)"/>
            </g>
        </g>
    </g>
</svg>
